<mxfile host="app.diagrams.net" modified="2023-06-18T13:02:53.168Z" agent="Mozilla/5.0 (Macintosh; Intel Mac OS X 10_15_7) AppleWebKit/537.36 (KHTML, like Gecko) Chrome/114.0.0.0 Safari/537.36" version="21.3.5" etag="6wDbr3U9QnZpvwzHCN2W" type="github">
  <diagram name="第 1 页" id="si5tOaVGu7U_KrCoZ2yR">
    <mxGraphModel>
      <root>
        <mxCell id="0" />
        <mxCell id="1" parent="0" />
      </root>
    </mxGraphModel>
  </diagram>
</mxfile>
